<svg width="26" height="26" viewBox="0 0 26 26" fill="none" xmlns="http://www.w3.org/2000/svg">
<g clip-path="url(#clip0_52740_12554)">
<path d="M23.572 12.8126C28.858 12.7195 24.0137 1.58547 20.3417 5.39151C24.0137 1.58547 12.716 -2.8581 12.8115 2.42834C12.716 -2.8581 1.58543 1.98661 5.39112 5.65655C1.58543 1.98661 -2.86012 13.283 2.42583 13.1898C-2.86012 13.283 1.98414 24.4146 5.65613 20.6109C1.98414 24.4146 13.2818 28.8605 13.1863 23.5741C13.2818 28.8605 24.4124 24.0158 20.6091 20.3435C24.4124 24.0158 28.858 12.7195 23.572 12.8126ZM19.8194 13.2376H19.7674C16.1215 13.2376 13.1575 16.3005 13.1386 20.0921H12.8119C12.793 16.3005 9.82896 13.2376 6.17841 13.2376V12.8584C9.84317 12.8584 12.8119 9.76598 12.8119 5.95954V5.9103H13.1386V5.95954C13.1386 9.76598 16.1073 12.8584 19.7674 12.8584H19.8194V13.2376Z" fill="#4A66ED"/>
</g>
<defs>
<clipPath id="clip0_52740_12554">
<rect width="26" height="26" fill="white"/>
</clipPath>
</defs>
</svg>
